<svg xmlns="http://www.w3.org/2000/svg" viewBox="0 0 640.01 384.42"><defs><style>.cls-1{fill:#f90;}</style></defs><g id="Layer_2" data-name="Layer 2"><g id="Layer_1-2" data-name="Layer 1"><path class="cls-1" d="M180.41,139.23c-.72,22.65,10.6,32.68,10.88,39.05a8.16,8.16,0,0,1-4.1,6.27l-12.8,9a10.63,10.63,0,0,1-5.63,1.92c-.43,0-8.19,1.83-20.48-25.61a78.59,78.59,0,0,1-62.61,29.45c-16.28.89-60.4-9.24-58.13-56.21C26,104.78,61.6,81,98.47,83c7.1,0,21.6.37,47,6.27V73.66c2.69-26.46-14.7-47-44.81-43.91-2.4,0-19.4-.5-45.84,10.11-7.36,3.38-8.3,2.82-10.75,2.82-7.41,0-4.36-21.48-2.94-24.2C46.33,12.08,77,.13,107.06.3a76.86,76.86,0,0,1,55.69,17.28,70.28,70.28,0,0,1,17.67,52.36v69.29ZM94,171.62c32.43-.47,46.16-20,49.29-30.47,2.46-10.05,2.05-16.41,2.05-27.4a171.88,171.88,0,0,0-39.56-4.87C90.62,107.74,63,114.51,64,141.14,62.79,157.93,75.15,172.54,94,171.62Zm170.92,23c-7.86.72-11.52-4.86-12.68-10.37L202.43,19.65a38.2,38.2,0,0,1-1.92-8.58,4.61,4.61,0,0,1,3.86-5.25c.24,0-2.13,0,22.25,0,8.78-.88,11.64,6,12.55,10.37L274.89,157,308.05,16.19C308.58,13,311,5.12,320.85,6H338c2.17-.18,11.11-.5,12.68,10.37L384.11,159,421,16.32C421.46,14.14,423.7,5,433.66,6h19.72c.85-.13,6.15-.81,5.25,8.58-.43,1.85,3.41-10.66-52.75,169.9-1.15,5.51-4.82,11.09-12.68,10.37H374.51c-10.94,1.15-12.51-9.66-12.68-10.75L328.67,46.92l-32.78,137c-.16,1.09-1.73,11.9-12.68,10.75h-18.3Zm273.48,5.63c-5.88,0-33.92-.3-57.36-12.29a12.81,12.81,0,0,1-7.81-11.91V165.35c0-8.45,6.2-6.9,8.83-5.89,10,4.06,16.48,7.14,28.81,9.6,36.65,7.53,52.77-2.3,56.72-4.48,13.15-7.81,14.19-25.68,5.25-35-10.48-8.79-15.48-9.12-53.13-21C515.06,107.34,476,95,475.91,56.27,475.3,28,501,.09,545.43.32,558.1.31,591.86,4.45,601,15.94a12.08,12.08,0,0,1,1.92,7V33.09q0,6.66-4.87,6.66c-7.71-.86-21.39-11.17-49.16-10.75-6.89-.36-39.89.91-38.41,25-.43,19,26.61,26.07,29.7,26.89,36.46,11,48.65,12.79,63.12,29.58,17.14,22.25,7.9,48.3,4.35,55.44-19.08,37.49-68.42,34.44-69.26,34.42Zm40.2,104.86c-70,51.72-171.69,79.25-258.49,79.25A469.13,469.13,0,0,1,2.83,263.68c-6.53-5.89-.77-14,7.17-9.47a637.43,637.43,0,0,0,316.88,84.12,630.41,630.41,0,0,0,241.59-49.55c11.78-5,21.77,7.8,10.12,16.38Zm29.19-33.29c-9-11.52-59.28-5.38-81.81-2.69-6.79.77-7.94-5.12-1.79-9.47,40.07-28.17,105.88-20.1,113.44-10.63s-2,75.41-39.56,106.91c-5.76,4.87-11.27,2.3-8.71-4.1C597.79,330.64,616.74,283.4,607.78,271.87Z"/></g></g></svg>