<svg xmlns="http://www.w3.org/2000/svg" viewBox="0 0 408.62 297.58"><defs><style>.cls-1{fill:#019ad1;}.cls-2{fill:#017caa;}</style></defs><g id="Layer_2" data-name="Layer 2"><g id="Layer_1-2" data-name="Layer 1"><path class="cls-1" d="M0,246.36a29.24,29.24,0,0,0,2.55-3.26q52-89.13,104.1-178.23a15.1,15.1,0,0,1,5.85-5.53q56.07-28.7,112.28-57.1c1.28-.65,2.58-1.26,4.59-2.24-.61,1.76-.91,2.84-1.36,3.86Q175.06,124,122.15,244.13c-1.22,2.77-2.72,3.57-5.66,3.56q-56.08-.16-112.17-.06c-1.44,0-2.88.22-4.32.33Z"/><path class="cls-2" d="M272,274,234.2,225.47Q210.62,195.23,187,165c-1.41-1.81-2.06-3.27-1-5.68q30-68.1,59.72-136.29c.32-.71.7-1.39,1.31-2.6L408.62,297.58H100.92V274Z"/></g></g></svg>