<svg xmlns="http://www.w3.org/2000/svg" viewBox="0 0 640 288.03"><defs><style>.cls-1{fill:#f38020;}</style></defs><g id="Layer_2" data-name="Layer 2"><g id="Layer_1-2" data-name="Layer 1"><path class="cls-1" d="M407.91,223.94,177.11,221a4.47,4.47,0,0,1-4.13-6.08,6.14,6.14,0,0,1,5.36-4.07l232.94-2.94c27.63-1.26,57.55-23.57,68-50.78l13.29-34.55a7.71,7.71,0,0,0,.52-2.93A7.39,7.39,0,0,0,493,118a151.91,151.91,0,0,0-291.69-15.61A68.12,68.12,0,0,0,94.2,173.62C41.92,175.14,0,217.76,0,270.15a95.92,95.92,0,0,0,1,14A4.52,4.52,0,0,0,5.47,288l426.1,0,.13,0a5.6,5.6,0,0,0,5.27-4l3.27-11.26c3.9-13.4,2.45-25.8-4.1-34.9C430.12,229.45,420.09,224.52,407.91,223.94Zm106-98.81c-2.14,0-4.27.06-6.39.16a3.79,3.79,0,0,0-3.33,2.66l-9.08,31.19c-3.9,13.4-2.44,25.79,4.1,34.89,6,8.4,16.06,13.32,28.24,13.9l49.2,2.94a4.51,4.51,0,0,1,3.51,1.89,4.65,4.65,0,0,1,.52,4.17,6.17,6.17,0,0,1-5.35,4.08L524.15,224c-27.75,1.27-57.67,23.57-68.14,50.78l-3.7,9.61a2.71,2.71,0,0,0,1.57,3.5,3.14,3.14,0,0,0,.86.18h176a4.69,4.69,0,0,0,4.54-3.37,124.43,124.43,0,0,0,4.68-34C640,181.33,583.52,125.13,513.86,125.13Z"/></g></g></svg>