<svg xmlns="http://www.w3.org/2000/svg" viewBox="0 0 407.93 354.3"><defs><style>.cls-1{fill:#fe0122;}.cls-2{fill:#fed138;}.cls-3{fill:#01b8f9;}.cls-4{fill:#0199d1;}.cls-5{fill:#feaf37;}.cls-6{fill:#d0dde3;}.cls-7{fill:#eef5f8;}.cls-8{fill:#fefefe;}</style></defs><g id="Layer_2" data-name="Layer 2"><g id="Layer_1-2" data-name="Layer 1"><path class="cls-1" d="M407.93,177.92c-.82,1.16-1.73,2.26-2.44,3.48Q356.6,266,307.8,350.69c-1.52,2.65-3.1,3.61-6.18,3.59-26.86-.14-53.71-.08-80.56-.09-1.32,0-2.65-.1-4-.16,1.57-2.9,3.08-5.84,4.73-8.71Q241.4,311.18,261,277.06a8.15,8.15,0,0,0,.75-.92q27.92-48.31,55.71-96.69a5.9,5.9,0,0,0-.17-4.94c-7.9-14-16-27.87-24-41.81q-15.88-27.63-31.7-55.31c1.72,0,3.44-.14,5.17-.14L350,77.12q15.41,26.49,30.82,53,12.38,21.36,24.72,42.74c.71,1.22,1.62,2.33,2.44,3.48Z"/><path class="cls-2" d="M203.53,354c-3.71.08-7.43.21-11.15.22-29,0-58,0-87,.07-2.83,0-4.47-.72-6-3.32Q50.15,265.32.72,179.72c-.71-1.22-1-3.43-.37-4.54q21.15-37,42.6-73.89a6.48,6.48,0,0,1,.74-.92q9.18,15.8,18.38,31.61,13.09,22.49,26.22,45a3.67,3.67,0,0,0,.25.75q28,48.68,56.18,97.29a4.62,4.62,0,0,0,3.41,1.91c18.47.07,36.94,0,55.41-.06l0,.33Z"/><path class="cls-3" d="M88.29,177q-13.11-22.48-26.22-45-9.21-15.79-18.38-31.61C52,85.84,60.25,71.3,68.59,56.79Q84.1,29.85,99.77,3c.77-1.33,2.65-2.85,4-2.86,33-.15,66-.1,99-.09a4.29,4.29,0,0,1,.78.15q0,38.43,0,76.85l0,.35c-18.48,0-37-.15-55.45-.06a5.08,5.08,0,0,0-3.57,2.28Q116.31,128.23,88.29,177Z"/><path class="cls-4" d="M203.51,77.06q0-38.43,0-76.85C217.35.15,231.16.06,245,0c19.14,0,38.27,0,57.41,0,2.17,0,3.6.42,4.8,2.51Q328.06,39,349.11,75.32c.33.57.56,1.2.84,1.8l-83.21.13c-1.73,0-3.45.09-5.17.14-2.78,0-5.56-.12-8.34-.13Q228.36,77.14,203.51,77.06Z"/><path class="cls-5" d="M203.53,354l0-76.84,57.51-.11q-19.6,34.13-39.19,68.26c-1.65,2.87-3.16,5.81-4.73,8.71Z"/><path class="cls-6" d="M261,277.06l-57.51.11,0-.33q0-29.89,0-59.78c21.84-.21,39.89-18.18,39.9-39.74a40.31,40.31,0,0,0-39.9-40.14l0-59.77,0-.35q24.86.09,49.72.2c2.78,0,5.56.08,8.34.13q15.85,27.66,31.7,55.31c8,13.94,16.13,27.81,24,41.81a5.9,5.9,0,0,1,.17,4.94q-27.72,48.42-55.71,96.69A8.15,8.15,0,0,1,261,277.06Z"/><path class="cls-7" d="M203.53,77.41l0,59.77,0,0c-21.39-.15-39.9,18.17-39.91,39.5,0,22.16,18.11,40.45,39.91,40.3l0,0q0,29.9,0,59.78c-18.47.05-36.94.13-55.41.06a4.62,4.62,0,0,1-3.41-1.91q-28.2-48.59-56.18-97.29a3.67,3.67,0,0,1-.25-.75q28.08-48.69,56.22-97.32a5.08,5.08,0,0,1,3.57-2.28C166.56,77.26,185.05,77.36,203.53,77.41Z"/><path class="cls-7" d="M203.55,137.18a40.31,40.31,0,0,1,39.9,40.14c0,21.56-18.06,39.53-39.9,39.74l0,0v-79.8Z"/><path class="cls-8" d="M203.51,137.22V217c-21.8.15-39.92-18.14-39.91-40.3C163.61,155.39,182.12,137.07,203.51,137.22Z"/></g></g></svg>